<svg width="38" height="38" viewBox="0 0 38 38" fill="none" xmlns="http://www.w3.org/2000/svg">
<g id="popular/instagram">
<path id="Vector" d="M19 23.475C21.4715 23.475 23.475 21.4715 23.475 19C23.475 16.5285 21.4715 14.525 19 14.525C16.5285 14.525 14.525 16.5285 14.525 19C14.525 21.4715 16.5285 23.475 19 23.475ZM22.025 19C22.025 20.6707 20.6707 22.025 19 22.025C17.3293 22.025 15.975 20.6707 15.975 19C15.975 17.3293 17.3293 15.975 19 15.975C20.6707 15.975 22.025 17.3293 22.025 19ZM24.625 14.725C25.0254 14.725 25.35 14.4004 25.35 14C25.35 13.5996 25.0254 13.275 24.625 13.275C24.2246 13.275 23.9 13.5996 23.9 14C23.9 14.4004 24.2246 14.725 24.625 14.725ZM14.625 8.9C11.4632 8.9 8.9 11.4632 8.9 14.625V23.375C8.9 26.5368 11.4632 29.1 14.625 29.1H23.375C26.5368 29.1 29.1 26.5368 29.1 23.375V14.625C29.1 11.4632 26.5368 8.9 23.375 8.9H14.625ZM14.625 10.35H23.375C25.736 10.35 27.65 12.264 27.65 14.625V23.375C27.65 25.736 25.736 27.65 23.375 27.65H14.625C12.264 27.65 10.35 25.736 10.35 23.375V14.625C10.35 12.264 12.264 10.35 14.625 10.35Z" fill="#4A4949" stroke="#4A4949" stroke-width="0.2"/>
</g>
</svg>
