<svg width="44" height="44" viewBox="0 0 44 44" fill="none" xmlns="http://www.w3.org/2000/svg">
<g id="popular/telegram">
<path id="Vector" d="M26.3606 29.4346L30.0268 13.748C30.1614 13.1721 29.9696 12.6327 29.6167 12.2934C29.2634 11.9536 28.7462 11.8133 28.239 12.0418L8.78804 20.8063C8.25522 21.0464 7.95283 21.609 7.93125 22.1744C7.90958 22.7419 8.17031 23.3257 8.77867 23.6045C9.23906 23.8155 10.7651 24.4865 12.392 24.8609C13.608 25.1408 14.7827 24.8048 15.7285 24.2335L18.2766 22.6944L16.7688 24.5304C16.1355 25.3015 16.3982 26.4405 17.1401 26.8801C20.6869 28.9818 22.4937 30.1519 23.3614 30.7436C24.4671 31.4978 26.0184 30.8987 26.3606 29.4346ZM9.31824 22.2087L9.31695 22.2058L9.31825 22.2087L9.31831 22.2087C9.31829 22.2087 9.31827 22.2087 9.31824 22.2087ZM12.6788 23.3764C11.1865 23.0329 9.76086 22.4091 9.32078 22.2075L28.6516 13.4972L25.0145 29.0591C24.9129 29.4938 24.4334 29.6859 24.0975 29.4569C23.1968 28.8426 21.3636 27.6566 17.804 25.5473C17.8039 25.5469 17.8037 25.5463 17.8035 25.5455C17.8033 25.5442 17.8034 25.5434 17.8035 25.5431L23.8004 18.2409C23.8943 18.1265 23.8788 17.9832 23.8114 17.8891C23.7775 17.8418 23.7286 17.8037 23.6696 17.7876C23.6093 17.7712 23.5433 17.7792 23.4811 17.8168L15.0558 22.906C14.3216 23.3495 13.488 23.5626 12.6788 23.3764Z" fill="#4A4949" stroke="#4A4949" stroke-width="0.14"/>
</g>
</svg>
