<svg width="38" height="38" viewBox="0 0 38 38" fill="none" xmlns="http://www.w3.org/2000/svg">
<g id="popular/whatsapp">
<path id="Vector" d="M16.8827 13.9153C16.7748 13.6725 16.5912 13.4281 16.3046 13.3502C15.6276 13.1663 14.8739 13.4841 14.2999 13.9785C13.7259 14.473 13.2983 15.1724 13.2983 15.8007C13.2983 16.9693 13.5285 18.1265 13.9757 19.2062C14.423 20.2858 15.0786 21.2668 15.905 22.0932C16.7315 22.9195 17.7126 23.575 18.7924 24.0222C19.8722 24.4694 21.0295 24.6996 22.1983 24.6996C22.8276 24.6996 23.5282 24.2707 24.0229 23.6955C24.5176 23.1202 24.8347 22.3649 24.6474 21.6875C24.5695 21.4055 24.3298 21.2237 24.0915 21.1154L21.8935 20.1158C21.5974 19.9811 21.2246 20.05 20.965 20.2151C20.7579 20.3468 20.5254 20.4858 20.2929 20.5665C20.0603 20.6473 19.8429 20.6645 19.6559 20.5737C18.5924 20.0573 17.8927 19.3953 17.3853 18.3081C17.2971 18.1192 17.3119 17.8992 17.3878 17.6655C17.4636 17.4322 17.596 17.1987 17.7244 16.9927C17.897 16.7156 17.9581 16.3347 17.8199 16.0238L16.8827 13.9153ZM15.1279 14.9395C15.3979 14.7069 15.6309 14.6104 15.7896 14.5793L16.5992 16.4006C16.4651 16.6211 16.2932 16.9293 16.1813 17.2736C16.0568 17.6569 15.9554 18.244 16.2358 18.8446C16.8774 20.2193 17.8008 21.083 19.1017 21.7147C19.7211 22.0155 20.3263 21.8977 20.7092 21.7647C21.037 21.6508 21.3328 21.4805 21.5432 21.3499L23.4208 22.2038C23.3909 22.362 23.2952 22.5961 23.061 22.8685C22.88 23.079 22.6934 23.2209 22.5354 23.3098C22.374 23.4006 22.2514 23.4311 22.1983 23.4311C21.1961 23.4311 20.2037 23.2338 19.2778 22.8503C18.3519 22.4668 17.5107 21.9048 16.802 21.1962C16.0934 20.4877 15.5312 19.6465 15.1477 18.7208C14.7642 17.795 14.5668 16.8028 14.5668 15.8007C14.5668 15.7478 14.5972 15.6255 14.6878 15.4644C14.7763 15.3068 14.9179 15.1204 15.1279 14.9395ZM19 30.0971C25.1303 30.0971 30.1 25.1281 30.1 18.9986C30.1 12.869 25.1303 7.9 19 7.9C12.8697 7.9 7.9 12.869 7.9 18.9986C7.9 20.8479 8.35246 22.5919 9.15283 24.1256C9.21695 24.2485 9.2343 24.3895 9.19905 24.521L7.9499 29.1823C7.80473 29.724 8.30049 30.2196 8.84221 30.0745L13.5207 28.8211C13.6515 28.786 13.7917 28.803 13.9142 28.8662C15.4379 29.6529 17.1672 30.0971 19 30.0971ZM28.6429 18.9986C28.6429 24.3234 24.3256 28.6401 19 28.6401C17.4052 28.6401 15.9046 28.2541 14.5827 27.5716C14.1537 27.3501 13.6417 27.2803 13.1436 27.4137L9.68401 28.3406L10.6065 24.8981C10.7408 24.3972 10.6694 23.8821 10.4447 23.4516C9.75032 22.121 9.35714 20.6077 9.35714 18.9986C9.35714 13.6737 13.6744 9.35698 19 9.35698C24.3256 9.35698 28.6429 13.6737 28.6429 18.9986Z" fill="#4A4949" stroke="#4A4949" stroke-width="0.2"/>
</g>
</svg>
