<svg width="40" height="21" viewBox="0 0 40 21" fill="none" xmlns="http://www.w3.org/2000/svg">
<rect x="1" y="1" width="37.8638" height="18.5697" rx="3.57093" stroke="#C52411" stroke-width="2"/>
<path d="M13.4745 15.2844H11.5985L11.5475 11.1687C11.5402 10.5808 11.4322 10.1515 11.2235 9.88082C11.0148 9.61017 10.7285 9.47485 10.3645 9.47485C10.1125 9.47485 9.85663 9.54018 9.59692 9.67083C9.34654 9.80149 9.12013 9.98348 8.91769 10.2168C8.71513 10.4408 8.56904 10.7021 8.47941 11.0007L8.53252 15.2844H6.65652L6.56557 7.94896H8.25957L8.27641 9.30686C8.45914 8.98955 8.69384 8.72357 8.98052 8.50892C9.26707 8.28494 9.59632 8.11695 9.96827 8.00496C10.3494 7.88364 10.75 7.82297 11.17 7.82297C11.6273 7.82297 12.0017 7.90697 12.2931 8.07495C12.5938 8.23361 12.8205 8.45293 12.9733 8.7329C13.1353 9.00355 13.2465 9.31153 13.3067 9.65683C13.3764 10.0021 13.4134 10.3521 13.4178 10.7068L13.4745 15.2844ZM18.5231 15.4244C17.9351 15.4244 17.4019 15.3264 16.9235 15.1304C16.445 14.9251 16.0355 14.6498 15.6953 14.3045C15.3549 13.9498 15.0886 13.5485 14.8963 13.1006C14.7133 12.6433 14.6187 12.1626 14.6125 11.6587C14.6038 10.9587 14.7499 10.3194 15.0507 9.74083C15.3608 9.1622 15.8031 8.70024 16.3775 8.35493C16.9611 8.00029 17.6496 7.82297 18.4429 7.82297C19.2456 7.82297 19.9338 8.00029 20.5075 8.35493C21.0811 8.70024 21.5208 9.1622 21.8267 9.74083C22.1417 10.3101 22.3034 10.9261 22.3116 11.5887C22.313 11.7007 22.3098 11.8173 22.3019 11.9387C22.294 12.0506 22.2858 12.144 22.2774 12.2186L16.6074 12.2186C16.6494 12.5919 16.7607 12.9186 16.9415 13.1986C17.1317 13.4785 17.3677 13.6932 17.6495 13.8425C17.9406 13.9825 18.2495 14.0525 18.5761 14.0525C18.9495 14.0525 19.2984 13.9638 19.6228 13.7865C19.9565 13.5999 20.1822 13.3572 20.2998 13.0586L21.9154 13.5065C21.7427 13.8798 21.4901 14.2112 21.1577 14.5005C20.8346 14.7898 20.4501 15.0184 20.0042 15.1864C19.5582 15.3451 19.0645 15.4244 18.5231 15.4244ZM16.5506 11.0287H20.3866C20.3447 10.6554 20.2334 10.3334 20.0527 10.0628C19.8812 9.78282 19.6545 9.56817 19.3727 9.41885C19.0907 9.2602 18.7771 9.18087 18.4317 9.18087C18.0957 9.18087 17.7887 9.2602 17.5107 9.41885C17.2419 9.56817 17.0205 9.78282 16.8467 10.0628C16.682 10.3334 16.5834 10.6554 16.5506 11.0287ZM32.3042 7.94896H34.0822L31.1072 15.2844H29.5392L28.2681 12.1346L27.1032 15.2844H25.5212L22.3782 7.94896H24.1422L26.395 13.4925L27.2193 11.0987L25.9064 7.96296H27.4604L28.2442 10.2028L28.9864 7.96296L30.5404 7.96296L29.3053 11.0987L30.203 13.4925L32.3042 7.94896Z" fill="#C52411"/>
</svg>
